<svg xmlns="http://www.w3.org/2000/svg" width="782" height="138" viewBox="0 0 782 138">
  <rect width="100%" height="100%" fill="#0D1117" rx="10"/>
  <rect x="20" y="104" width="11" height="11" rx="2" fill="#0e4b52"><title>2025-07-20: 7 contributions</title></rect><rect x="20" y="20" width="11" height="11" rx="2" fill="#0d1117"><title>2025-07-21: 0 contributions</title></rect><rect x="20" y="34" width="11" height="11" rx="2" fill="#0e4b52"><title>2025-07-22: 1 contributions</title></rect><rect x="20" y="48" width="11" height="11" rx="2" fill="#0e4b52"><title>2025-07-23: 2 contributions</title></rect><rect x="20" y="62" width="11" height="11" rx="2" fill="#0e4b52"><title>2025-07-24: 4 contributions</title></rect><rect x="20" y="76" width="11" height="11" rx="2" fill="#0d1117"><title>2025-07-25: 0 contributions</title></rect><rect x="20" y="90" width="11" height="11" rx="2" fill="#0d1117"><title>2025-07-26: 0 contributions</title></rect><rect x="34" y="104" width="11" height="11" rx="2" fill="#0d1117"><title>2025-07-27: 0 contributions</title></rect><rect x="34" y="20" width="11" height="11" rx="2" fill="#0d1117"><title>2025-07-28: 0 contributions</title></rect><rect x="34" y="34" width="11" height="11" rx="2" fill="#0e4b52"><title>2025-07-29: 1 contributions</title></rect><rect x="34" y="48" width="11" height="11" rx="2" fill="#0d1117"><title>2025-07-30: 0 contributions</title></rect><rect x="34" y="62" width="11" height="11" rx="2" fill="#0e4b52"><title>2025-07-31: 5 contributions</title></rect><rect x="34" y="76" width="11" height="11" rx="2" fill="#0e4b52"><title>2025-08-01: 1 contributions</title></rect><rect x="34" y="90" width="11" height="11" rx="2" fill="#0e4b52"><title>2025-08-02: 2 contributions</title></rect><rect x="48" y="104" width="11" height="11" rx="2" fill="#0d1117"><title>2025-08-03: 0 contributions</title></rect><rect x="48" y="20" width="11" height="11" rx="2" fill="#0d1117"><title>2025-08-04: 0 contributions</title></rect><rect x="48" y="34" width="11" height="11" rx="2" fill="#0e4b52"><title>2025-08-05: 2 contributions</title></rect><rect x="48" y="48" width="11" height="11" rx="2" fill="#0d1117"><title>2025-08-06: 0 contributions</title></rect><rect x="48" y="62" width="11" height="11" rx="2" fill="#0d1117"><title>2025-08-07: 0 contributions</title></rect><rect x="48" y="76" width="11" height="11" rx="2" fill="#0d1117"><title>2025-08-08: 0 contributions</title></rect><rect x="48" y="90" width="11" height="11" rx="2" fill="#0d1117"><title>2025-08-09: 0 contributions</title></rect><rect x="62" y="104" width="11" height="11" rx="2" fill="#0e4b52"><title>2025-08-10: 3 contributions</title></rect><rect x="62" y="20" width="11" height="11" rx="2" fill="#0e4b52"><title>2025-08-11: 4 contributions</title></rect><rect x="62" y="34" width="11" height="11" rx="2" fill="#0d1117"><title>2025-08-12: 0 contributions</title></rect><rect x="62" y="48" width="11" height="11" rx="2" fill="#0e4b52"><title>2025-08-13: 1 contributions</title></rect><rect x="62" y="62" width="11" height="11" rx="2" fill="#0d1117"><title>2025-08-14: 0 contributions</title></rect><rect x="62" y="76" width="11" height="11" rx="2" fill="#0e4b52"><title>2025-08-15: 2 contributions</title></rect><rect x="62" y="90" width="11" height="11" rx="2" fill="#0e4b52"><title>2025-08-16: 1 contributions</title></rect><rect x="76" y="104" width="11" height="11" rx="2" fill="#0e4b52"><title>2025-08-17: 2 contributions</title></rect><rect x="76" y="20" width="11" height="11" rx="2" fill="#0d1117"><title>2025-08-18: 0 contributions</title></rect><rect x="76" y="34" width="11" height="11" rx="2" fill="#0d1117"><title>2025-08-19: 0 contributions</title></rect><rect x="76" y="48" width="11" height="11" rx="2" fill="#0d1117"><title>2025-08-20: 0 contributions</title></rect><rect x="76" y="62" width="11" height="11" rx="2" fill="#0d1117"><title>2025-08-21: 0 contributions</title></rect><rect x="76" y="76" width="11" height="11" rx="2" fill="#0d1117"><title>2025-08-22: 0 contributions</title></rect><rect x="76" y="90" width="11" height="11" rx="2" fill="#0e4b52"><title>2025-08-23: 2 contributions</title></rect><rect x="90" y="104" width="11" height="11" rx="2" fill="#0d1117"><title>2025-08-24: 0 contributions</title></rect><rect x="90" y="20" width="11" height="11" rx="2" fill="#0d1117"><title>2025-08-25: 0 contributions</title></rect><rect x="90" y="34" width="11" height="11" rx="2" fill="#0d1117"><title>2025-08-26: 0 contributions</title></rect><rect x="90" y="48" width="11" height="11" rx="2" fill="#0d1117"><title>2025-08-27: 0 contributions</title></rect><rect x="90" y="62" width="11" height="11" rx="2" fill="#0e4b52"><title>2025-08-28: 3 contributions</title></rect><rect x="90" y="76" width="11" height="11" rx="2" fill="#0e4b52"><title>2025-08-29: 3 contributions</title></rect><rect x="90" y="90" width="11" height="11" rx="2" fill="#0e4b52"><title>2025-08-30: 6 contributions</title></rect><rect x="104" y="104" width="11" height="11" rx="2" fill="#0e4b52"><title>2025-08-31: 3 contributions</title></rect><rect x="104" y="20" width="11" height="11" rx="2" fill="#0d1117"><title>2025-09-01: 0 contributions</title></rect><rect x="104" y="34" width="11" height="11" rx="2" fill="#0e4b52"><title>2025-09-02: 1 contributions</title></rect><rect x="104" y="48" width="11" height="11" rx="2" fill="#0d1117"><title>2025-09-03: 0 contributions</title></rect><rect x="104" y="62" width="11" height="11" rx="2" fill="#0d1117"><title>2025-09-04: 0 contributions</title></rect><rect x="104" y="76" width="11" height="11" rx="2" fill="#0e4b52"><title>2025-09-05: 5 contributions</title></rect><rect x="104" y="90" width="11" height="11" rx="2" fill="#0d1117"><title>2025-09-06: 0 contributions</title></rect><rect x="118" y="104" width="11" height="11" rx="2" fill="#0d1117"><title>2025-09-07: 0 contributions</title></rect><rect x="118" y="20" width="11" height="11" rx="2" fill="#0d1117"><title>2025-09-08: 0 contributions</title></rect><rect x="118" y="34" width="11" height="11" rx="2" fill="#0e4b52"><title>2025-09-09: 1 contributions</title></rect><rect x="118" y="48" width="11" height="11" rx="2" fill="#0d1117"><title>2025-09-10: 0 contributions</title></rect><rect x="118" y="62" width="11" height="11" rx="2" fill="#0d1117"><title>2025-09-11: 0 contributions</title></rect><rect x="118" y="76" width="11" height="11" rx="2" fill="#0d1117"><title>2025-09-12: 0 contributions</title></rect><rect x="118" y="90" width="11" height="11" rx="2" fill="#0d1117"><title>2025-09-13: 0 contributions</title></rect><rect x="132" y="104" width="11" height="11" rx="2" fill="#0d1117"><title>2025-09-14: 0 contributions</title></rect><rect x="132" y="20" width="11" height="11" rx="2" fill="#0d1117"><title>2025-09-15: 0 contributions</title></rect><rect x="132" y="34" width="11" height="11" rx="2" fill="#0d1117"><title>2025-09-16: 0 contributions</title></rect><rect x="132" y="48" width="11" height="11" rx="2" fill="#0e4b52"><title>2025-09-17: 8 contributions</title></rect><rect x="132" y="62" width="11" height="11" rx="2" fill="#0d1117"><title>2025-09-18: 0 contributions</title></rect><rect x="132" y="76" width="11" height="11" rx="2" fill="#0d1117"><title>2025-09-19: 0 contributions</title></rect><rect x="132" y="90" width="11" height="11" rx="2" fill="#0d1117"><title>2025-09-20: 0 contributions</title></rect><rect x="146" y="104" width="11" height="11" rx="2" fill="#0d1117"><title>2025-09-21: 0 contributions</title></rect><rect x="146" y="20" width="11" height="11" rx="2" fill="#0d1117"><title>2025-09-22: 0 contributions</title></rect><rect x="146" y="34" width="11" height="11" rx="2" fill="#0d1117"><title>2025-09-23: 0 contributions</title></rect><rect x="146" y="48" width="11" height="11" rx="2" fill="#0e4b52"><title>2025-09-24: 1 contributions</title></rect><rect x="146" y="62" width="11" height="11" rx="2" fill="#0d1117"><title>2025-09-25: 0 contributions</title></rect><rect x="146" y="76" width="11" height="11" rx="2" fill="#0d1117"><title>2025-09-26: 0 contributions</title></rect><rect x="146" y="90" width="11" height="11" rx="2" fill="#0e4b52"><title>2025-09-27: 1 contributions</title></rect><rect x="160" y="104" width="11" height="11" rx="2" fill="#0d1117"><title>2025-09-28: 0 contributions</title></rect><rect x="160" y="20" width="11" height="11" rx="2" fill="#0d1117"><title>2025-09-29: 0 contributions</title></rect><rect x="160" y="34" width="11" height="11" rx="2" fill="#0d1117"><title>2025-09-30: 0 contributions</title></rect><rect x="160" y="48" width="11" height="11" rx="2" fill="#0d1117"><title>2025-10-01: 0 contributions</title></rect><rect x="160" y="62" width="11" height="11" rx="2" fill="#0e4b52"><title>2025-10-02: 4 contributions</title></rect><rect x="160" y="76" width="11" height="11" rx="2" fill="#0e4b52"><title>2025-10-03: 4 contributions</title></rect><rect x="160" y="90" width="11" height="11" rx="2" fill="#0e4b52"><title>2025-10-04: 7 contributions</title></rect><rect x="174" y="104" width="11" height="11" rx="2" fill="#0e4b52"><title>2025-10-05: 4 contributions</title></rect><rect x="174" y="20" width="11" height="11" rx="2" fill="#0e4b52"><title>2025-10-06: 4 contributions</title></rect><rect x="174" y="34" width="11" height="11" rx="2" fill="#0d1117"><title>2025-10-07: 0 contributions</title></rect><rect x="174" y="48" width="11" height="11" rx="2" fill="#0e4b52"><title>2025-10-08: 6 contributions</title></rect><rect x="174" y="62" width="11" height="11" rx="2" fill="#0d1117"><title>2025-10-09: 0 contributions</title></rect><rect x="174" y="76" width="11" height="11" rx="2" fill="#0d1117"><title>2025-10-10: 0 contributions</title></rect><rect x="174" y="90" width="11" height="11" rx="2" fill="#0d1117"><title>2025-10-11: 0 contributions</title></rect><rect x="188" y="104" width="11" height="11" rx="2" fill="#0d1117"><title>2025-10-12: 0 contributions</title></rect><rect x="188" y="20" width="11" height="11" rx="2" fill="#0d1117"><title>2025-10-13: 0 contributions</title></rect><rect x="188" y="34" width="11" height="11" rx="2" fill="#0d1117"><title>2025-10-14: 0 contributions</title></rect><rect x="188" y="48" width="11" height="11" rx="2" fill="#0e4b52"><title>2025-10-15: 1 contributions</title></rect><rect x="188" y="62" width="11" height="11" rx="2" fill="#0e4b52"><title>2025-10-16: 1 contributions</title></rect><rect x="188" y="76" width="11" height="11" rx="2" fill="#0d1117"><title>2025-10-17: 0 contributions</title></rect><rect x="188" y="90" width="11" height="11" rx="2" fill="#0d1117"><title>2025-10-18: 0 contributions</title></rect><rect x="202" y="104" width="11" height="11" rx="2" fill="#0e4b52"><title>2025-10-19: 10 contributions</title></rect><rect x="202" y="20" width="11" height="11" rx="2" fill="#0e4b52"><title>2025-10-20: 4 contributions</title></rect><rect x="202" y="34" width="11" height="11" rx="2" fill="#0e4b52"><title>2025-10-21: 5 contributions</title></rect><rect x="202" y="48" width="11" height="11" rx="2" fill="#0d1117"><title>2025-10-22: 0 contributions</title></rect><rect x="202" y="62" width="11" height="11" rx="2" fill="#0d1117"><title>2025-10-23: 0 contributions</title></rect><rect x="202" y="76" width="11" height="11" rx="2" fill="#0e4b52"><title>2025-10-24: 5 contributions</title></rect><rect x="202" y="90" width="11" height="11" rx="2" fill="#0e4b52"><title>2025-10-25: 20 contributions</title></rect><rect x="216" y="104" width="11" height="11" rx="2" fill="#0d1117"><title>2025-10-26: 0 contributions</title></rect><rect x="216" y="20" width="11" height="11" rx="2" fill="#0d1117"><title>2025-10-27: 0 contributions</title></rect><rect x="216" y="34" width="11" height="11" rx="2" fill="#0d1117"><title>2025-10-28: 0 contributions</title></rect><rect x="216" y="48" width="11" height="11" rx="2" fill="#0d1117"><title>2025-10-29: 0 contributions</title></rect><rect x="216" y="62" width="11" height="11" rx="2" fill="#0d1117"><title>2025-10-30: 0 contributions</title></rect><rect x="216" y="76" width="11" height="11" rx="2" fill="#0d1117"><title>2025-10-31: 0 contributions</title></rect><rect x="216" y="90" width="11" height="11" rx="2" fill="#0d1117"><title>2025-11-01: 0 contributions</title></rect><rect x="230" y="104" width="11" height="11" rx="2" fill="#0d1117"><title>2025-11-02: 0 contributions</title></rect><rect x="230" y="20" width="11" height="11" rx="2" fill="#0d1117"><title>2025-11-03: 0 contributions</title></rect><rect x="230" y="34" width="11" height="11" rx="2" fill="#0e4b52"><title>2025-11-04: 1 contributions</title></rect><rect x="230" y="48" width="11" height="11" rx="2" fill="#0e4b52"><title>2025-11-05: 9 contributions</title></rect><rect x="230" y="62" width="11" height="11" rx="2" fill="#0d1117"><title>2025-11-06: 0 contributions</title></rect><rect x="230" y="76" width="11" height="11" rx="2" fill="#0e4b52"><title>2025-11-07: 2 contributions</title></rect><rect x="230" y="90" width="11" height="11" rx="2" fill="#0e4b52"><title>2025-11-08: 8 contributions</title></rect><rect x="244" y="104" width="11" height="11" rx="2" fill="#0e4b52"><title>2025-11-09: 31 contributions</title></rect><rect x="244" y="20" width="11" height="11" rx="2" fill="#0e4b52"><title>2025-11-10: 1 contributions</title></rect><rect x="244" y="34" width="11" height="11" rx="2" fill="#0d1117"><title>2025-11-11: 0 contributions</title></rect><rect x="244" y="48" width="11" height="11" rx="2" fill="#0e4b52"><title>2025-11-12: 1 contributions</title></rect><rect x="244" y="62" width="11" height="11" rx="2" fill="#0d1117"><title>2025-11-13: 0 contributions</title></rect><rect x="244" y="76" width="11" height="11" rx="2" fill="#0d1117"><title>2025-11-14: 0 contributions</title></rect><rect x="244" y="90" width="11" height="11" rx="2" fill="#0d1117"><title>2025-11-15: 0 contributions</title></rect><rect x="258" y="104" width="11" height="11" rx="2" fill="#0d1117"><title>2025-11-16: 0 contributions</title></rect><rect x="258" y="20" width="11" height="11" rx="2" fill="#0d1117"><title>2025-11-17: 0 contributions</title></rect><rect x="258" y="34" width="11" height="11" rx="2" fill="#0d1117"><title>2025-11-18: 0 contributions</title></rect><rect x="258" y="48" width="11" height="11" rx="2" fill="#0d1117"><title>2025-11-19: 0 contributions</title></rect><rect x="258" y="62" width="11" height="11" rx="2" fill="#0d1117"><title>2025-11-20: 0 contributions</title></rect><rect x="258" y="76" width="11" height="11" rx="2" fill="#0d1117"><title>2025-11-21: 0 contributions</title></rect><rect x="258" y="90" width="11" height="11" rx="2" fill="#0d1117"><title>2025-11-22: 0 contributions</title></rect><rect x="272" y="104" width="11" height="11" rx="2" fill="#0d1117"><title>2025-11-23: 0 contributions</title></rect><rect x="272" y="20" width="11" height="11" rx="2" fill="#0d1117"><title>2025-11-24: 0 contributions</title></rect><rect x="272" y="34" width="11" height="11" rx="2" fill="#0d1117"><title>2025-11-25: 0 contributions</title></rect><rect x="272" y="48" width="11" height="11" rx="2" fill="#0d1117"><title>2025-11-26: 0 contributions</title></rect><rect x="272" y="62" width="11" height="11" rx="2" fill="#0d1117"><title>2025-11-27: 0 contributions</title></rect><rect x="272" y="76" width="11" height="11" rx="2" fill="#0d1117"><title>2025-11-28: 0 contributions</title></rect><rect x="272" y="90" width="11" height="11" rx="2" fill="#0d1117"><title>2025-11-29: 0 contributions</title></rect><rect x="286" y="104" width="11" height="11" rx="2" fill="#0d1117"><title>2025-11-30: 0 contributions</title></rect><rect x="286" y="20" width="11" height="11" rx="2" fill="#0d1117"><title>2025-12-01: 0 contributions</title></rect><rect x="286" y="34" width="11" height="11" rx="2" fill="#0d1117"><title>2025-12-02: 0 contributions</title></rect><rect x="286" y="48" width="11" height="11" rx="2" fill="#0d1117"><title>2025-12-03: 0 contributions</title></rect><rect x="286" y="62" width="11" height="11" rx="2" fill="#0d1117"><title>2025-12-04: 0 contributions</title></rect><rect x="286" y="76" width="11" height="11" rx="2" fill="#0d1117"><title>2025-12-05: 0 contributions</title></rect><rect x="286" y="90" width="11" height="11" rx="2" fill="#0e4b52"><title>2025-12-06: 7 contributions</title></rect><rect x="300" y="104" width="11" height="11" rx="2" fill="#0d1117"><title>2025-12-07: 0 contributions</title></rect><rect x="300" y="20" width="11" height="11" rx="2" fill="#0e4b52"><title>2025-12-08: 3 contributions</title></rect><rect x="300" y="34" width="11" height="11" rx="2" fill="#0d1117"><title>2025-12-09: 0 contributions</title></rect><rect x="300" y="48" width="11" height="11" rx="2" fill="#0d1117"><title>2025-12-10: 0 contributions</title></rect><rect x="300" y="62" width="11" height="11" rx="2" fill="#0d1117"><title>2025-12-11: 0 contributions</title></rect><rect x="300" y="76" width="11" height="11" rx="2" fill="#0e4b52"><title>2025-12-12: 8 contributions</title></rect><rect x="300" y="90" width="11" height="11" rx="2" fill="#0d1117"><title>2025-12-13: 0 contributions</title></rect><rect x="314" y="104" width="11" height="11" rx="2" fill="#0d1117"><title>2025-12-14: 0 contributions</title></rect><rect x="314" y="20" width="11" height="11" rx="2" fill="#0d1117"><title>2025-12-15: 0 contributions</title></rect><rect x="314" y="34" width="11" height="11" rx="2" fill="#0d1117"><title>2025-12-16: 0 contributions</title></rect><rect x="314" y="48" width="11" height="11" rx="2" fill="#0e4b52"><title>2025-12-17: 1 contributions</title></rect><rect x="314" y="62" width="11" height="11" rx="2" fill="#0e4b52"><title>2025-12-18: 4 contributions</title></rect><rect x="314" y="76" width="11" height="11" rx="2" fill="#0d1117"><title>2025-12-19: 0 contributions</title></rect><rect x="314" y="90" width="11" height="11" rx="2" fill="#0e4b52"><title>2025-12-20: 1 contributions</title></rect><rect x="328" y="104" width="11" height="11" rx="2" fill="#0d1117"><title>2025-12-21: 0 contributions</title></rect><rect x="328" y="20" width="11" height="11" rx="2" fill="#0d1117"><title>2025-12-22: 0 contributions</title></rect><rect x="328" y="34" width="11" height="11" rx="2" fill="#0e4b52"><title>2025-12-23: 2 contributions</title></rect><rect x="328" y="48" width="11" height="11" rx="2" fill="#0d1117"><title>2025-12-24: 0 contributions</title></rect><rect x="328" y="62" width="11" height="11" rx="2" fill="#0e4b52"><title>2025-12-25: 2 contributions</title></rect><rect x="328" y="76" width="11" height="11" rx="2" fill="#0d1117"><title>2025-12-26: 0 contributions</title></rect><rect x="328" y="90" width="11" height="11" rx="2" fill="#0d1117"><title>2025-12-27: 0 contributions</title></rect><rect x="342" y="104" width="11" height="11" rx="2" fill="#0d1117"><title>2025-12-28: 0 contributions</title></rect><rect x="342" y="20" width="11" height="11" rx="2" fill="#0e4b52"><title>2025-12-29: 8 contributions</title></rect><rect x="342" y="34" width="11" height="11" rx="2" fill="#0e4b52"><title>2025-12-30: 3 contributions</title></rect><rect x="342" y="48" width="11" height="11" rx="2" fill="#0e4b52"><title>2025-12-31: 4 contributions</title></rect><rect x="342" y="62" width="11" height="11" rx="2" fill="#0e4b52"><title>2026-01-01: 1 contributions</title></rect><rect x="342" y="76" width="11" height="11" rx="2" fill="#0e4b52"><title>2026-01-02: 2 contributions</title></rect><rect x="342" y="90" width="11" height="11" rx="2" fill="#0e4b52"><title>2026-01-03: 5 contributions</title></rect><rect x="356" y="104" width="11" height="11" rx="2" fill="#0e4b52"><title>2026-01-04: 4 contributions</title></rect><rect x="356" y="20" width="11" height="11" rx="2" fill="#0e4b52"><title>2026-01-05: 6 contributions</title></rect><rect x="356" y="34" width="11" height="11" rx="2" fill="#0e4b52"><title>2026-01-06: 14 contributions</title></rect><rect x="356" y="48" width="11" height="11" rx="2" fill="#0e4b52"><title>2026-01-07: 4 contributions</title></rect><rect x="356" y="62" width="11" height="11" rx="2" fill="#0d1117"><title>2026-01-08: 0 contributions</title></rect><rect x="356" y="76" width="11" height="11" rx="2" fill="#0e4b52"><title>2026-01-09: 1 contributions</title></rect><rect x="356" y="90" width="11" height="11" rx="2" fill="#0e4b52"><title>2026-01-10: 1 contributions</title></rect><rect x="370" y="104" width="11" height="11" rx="2" fill="#0e4b52"><title>2026-01-11: 2 contributions</title></rect><rect x="370" y="20" width="11" height="11" rx="2" fill="#0e4b52"><title>2026-01-12: 2 contributions</title></rect><rect x="370" y="34" width="11" height="11" rx="2" fill="#0e4b52"><title>2026-01-13: 10 contributions</title></rect><rect x="370" y="48" width="11" height="11" rx="2" fill="#0e4b52"><title>2026-01-14: 6 contributions</title></rect><rect x="370" y="62" width="11" height="11" rx="2" fill="#0e4b52"><title>2026-01-15: 5 contributions</title></rect><rect x="370" y="76" width="11" height="11" rx="2" fill="#0e4b52"><title>2026-01-16: 6 contributions</title></rect><rect x="370" y="90" width="11" height="11" rx="2" fill="#0e4b52"><title>2026-01-17: 4 contributions</title></rect><rect x="384" y="104" width="11" height="11" rx="2" fill="#0e4b52"><title>2026-01-18: 6 contributions</title></rect><rect x="384" y="20" width="11" height="11" rx="2" fill="#0e4b52"><title>2026-01-19: 9 contributions</title></rect><rect x="384" y="34" width="11" height="11" rx="2" fill="#0e4b52"><title>2026-01-20: 1 contributions</title></rect><rect x="384" y="48" width="11" height="11" rx="2" fill="#0e4b52"><title>2026-01-21: 11 contributions</title></rect><rect x="384" y="62" width="11" height="11" rx="2" fill="#0e4b52"><title>2026-01-22: 3 contributions</title></rect><rect x="384" y="76" width="11" height="11" rx="2" fill="#0e4b52"><title>2026-01-23: 5 contributions</title></rect><rect x="384" y="90" width="11" height="11" rx="2" fill="#0e4b52"><title>2026-01-24: 17 contributions</title></rect><rect x="398" y="104" width="11" height="11" rx="2" fill="#0e4b52"><title>2026-01-25: 18 contributions</title></rect><rect x="398" y="20" width="11" height="11" rx="2" fill="#0e4b52"><title>2026-01-26: 8 contributions</title></rect><rect x="398" y="34" width="11" height="11" rx="2" fill="#0e4b52"><title>2026-01-27: 10 contributions</title></rect><rect x="398" y="48" width="11" height="11" rx="2" fill="#0e4b52"><title>2026-01-28: 7 contributions</title></rect><rect x="398" y="62" width="11" height="11" rx="2" fill="#0e4b52"><title>2026-01-29: 6 contributions</title></rect><rect x="398" y="76" width="11" height="11" rx="2" fill="#0e4b52"><title>2026-01-30: 2 contributions</title></rect><rect x="398" y="90" width="11" height="11" rx="2" fill="#0e4b52"><title>2026-01-31: 17 contributions</title></rect><rect x="412" y="104" width="11" height="11" rx="2" fill="#0e4b52"><title>2026-02-01: 3 contributions</title></rect><rect x="412" y="20" width="11" height="11" rx="2" fill="#0e4b52"><title>2026-02-02: 2 contributions</title></rect><rect x="412" y="34" width="11" height="11" rx="2" fill="#0e4b52"><title>2026-02-03: 17 contributions</title></rect><rect x="412" y="48" width="11" height="11" rx="2" fill="#0e4b52"><title>2026-02-04: 1 contributions</title></rect><rect x="412" y="62" width="11" height="11" rx="2" fill="#0e4b52"><title>2026-02-05: 6 contributions</title></rect><rect x="412" y="76" width="11" height="11" rx="2" fill="#0e4b52"><title>2026-02-06: 21 contributions</title></rect><rect x="412" y="90" width="11" height="11" rx="2" fill="#0e4b52"><title>2026-02-07: 11 contributions</title></rect><rect x="426" y="104" width="11" height="11" rx="2" fill="#0e4b52"><title>2026-02-08: 8 contributions</title></rect><rect x="426" y="20" width="11" height="11" rx="2" fill="#0e4b52"><title>2026-02-09: 11 contributions</title></rect><rect x="426" y="34" width="11" height="11" rx="2" fill="#0e4b52"><title>2026-02-10: 6 contributions</title></rect><rect x="426" y="48" width="11" height="11" rx="2" fill="#0e4b52"><title>2026-02-11: 7 contributions</title></rect><rect x="426" y="62" width="11" height="11" rx="2" fill="#0e4b52"><title>2026-02-12: 12 contributions</title></rect><rect x="426" y="76" width="11" height="11" rx="2" fill="#0e4b52"><title>2026-02-13: 5 contributions</title></rect><rect x="426" y="90" width="11" height="11" rx="2" fill="#0e4b52"><title>2026-02-14: 12 contributions</title></rect><rect x="440" y="104" width="11" height="11" rx="2" fill="#0e4b52"><title>2026-02-15: 8 contributions</title></rect><rect x="440" y="20" width="11" height="11" rx="2" fill="#0e4b52"><title>2026-02-16: 9 contributions</title></rect><rect x="440" y="34" width="11" height="11" rx="2" fill="#0e4b52"><title>2026-02-17: 2 contributions</title></rect><rect x="440" y="48" width="11" height="11" rx="2" fill="#0e4b52"><title>2026-02-18: 13 contributions</title></rect><rect x="440" y="62" width="11" height="11" rx="2" fill="#0e4b52"><title>2026-02-19: 6 contributions</title></rect><rect x="440" y="76" width="11" height="11" rx="2" fill="#0e4b52"><title>2026-02-20: 4 contributions</title></rect><rect x="440" y="90" width="11" height="11" rx="2" fill="#0e4b52"><title>2026-02-21: 6 contributions</title></rect><rect x="454" y="104" width="11" height="11" rx="2" fill="#0e4b52"><title>2026-02-22: 5 contributions</title></rect><rect x="454" y="20" width="11" height="11" rx="2" fill="#0e4b52"><title>2026-02-23: 4 contributions</title></rect><rect x="454" y="34" width="11" height="11" rx="2" fill="#0e4b52"><title>2026-02-24: 2 contributions</title></rect><rect x="454" y="48" width="11" height="11" rx="2" fill="#0e4b52"><title>2026-02-25: 4 contributions</title></rect><rect x="454" y="62" width="11" height="11" rx="2" fill="#0d1117"><title>2026-02-26: 0 contributions</title></rect><rect x="454" y="76" width="11" height="11" rx="2" fill="#0e4b52"><title>2026-02-27: 8 contributions</title></rect><rect x="454" y="90" width="11" height="11" rx="2" fill="#0d1117"><title>2026-02-28: 0 contributions</title></rect><rect x="468" y="104" width="11" height="11" rx="2" fill="#0f7a87"><title>2026-03-01: 43 contributions</title></rect><rect x="468" y="20" width="11" height="11" rx="2" fill="#0f7a87"><title>2026-03-02: 58 contributions</title></rect><rect x="468" y="34" width="11" height="11" rx="2" fill="#0f7a87"><title>2026-03-03: 56 contributions</title></rect><rect x="468" y="48" width="11" height="11" rx="2" fill="#0f7a87"><title>2026-03-04: 40 contributions</title></rect><rect x="468" y="62" width="11" height="11" rx="2" fill="#0e4b52"><title>2026-03-05: 24 contributions</title></rect><rect x="468" y="76" width="11" height="11" rx="2" fill="#0e4b52"><title>2026-03-06: 7 contributions</title></rect><rect x="468" y="90" width="11" height="11" rx="2" fill="#0e4b52"><title>2026-03-07: 1 contributions</title></rect><rect x="482" y="104" width="11" height="11" rx="2" fill="#0e4b52"><title>2026-03-08: 3 contributions</title></rect><rect x="482" y="20" width="11" height="11" rx="2" fill="#0d1117"><title>2026-03-09: 0 contributions</title></rect><rect x="482" y="34" width="11" height="11" rx="2" fill="#0e4b52"><title>2026-03-10: 1 contributions</title></rect><rect x="482" y="48" width="11" height="11" rx="2" fill="#0d1117"><title>2026-03-11: 0 contributions</title></rect><rect x="482" y="62" width="11" height="11" rx="2" fill="#0d1117"><title>2026-03-12: 0 contributions</title></rect><rect x="482" y="76" width="11" height="11" rx="2" fill="#0e4b52"><title>2026-03-13: 2 contributions</title></rect><rect x="482" y="90" width="11" height="11" rx="2" fill="#0d1117"><title>2026-03-14: 0 contributions</title></rect><rect x="496" y="104" width="11" height="11" rx="2" fill="#0d1117"><title>2026-03-15: 0 contributions</title></rect><rect x="496" y="20" width="11" height="11" rx="2" fill="#0d1117"><title>2026-03-16: 0 contributions</title></rect><rect x="496" y="34" width="11" height="11" rx="2" fill="#0e4b52"><title>2026-03-17: 1 contributions</title></rect><rect x="496" y="48" width="11" height="11" rx="2" fill="#0e4b52"><title>2026-03-18: 1 contributions</title></rect><rect x="496" y="62" width="11" height="11" rx="2" fill="#0e4b52"><title>2026-03-19: 2 contributions</title></rect><rect x="496" y="76" width="11" height="11" rx="2" fill="#0e4b52"><title>2026-03-20: 3 contributions</title></rect><rect x="496" y="90" width="11" height="11" rx="2" fill="#0d1117"><title>2026-03-21: 0 contributions</title></rect><rect x="510" y="104" width="11" height="11" rx="2" fill="#0d1117"><title>2026-03-22: 0 contributions</title></rect><rect x="510" y="20" width="11" height="11" rx="2" fill="#0e4b52"><title>2026-03-23: 2 contributions</title></rect><rect x="510" y="34" width="11" height="11" rx="2" fill="#0e4b52"><title>2026-03-24: 4 contributions</title></rect><rect x="510" y="48" width="11" height="11" rx="2" fill="#0d1117"><title>2026-03-25: 0 contributions</title></rect><rect x="510" y="62" width="11" height="11" rx="2" fill="#0d1117"><title>2026-03-26: 0 contributions</title></rect><rect x="510" y="76" width="11" height="11" rx="2" fill="#0d1117"><title>2026-03-27: 0 contributions</title></rect><rect x="510" y="90" width="11" height="11" rx="2" fill="#0d1117"><title>2026-03-28: 0 contributions</title></rect><rect x="524" y="104" width="11" height="11" rx="2" fill="#0d1117"><title>2026-03-29: 0 contributions</title></rect><rect x="524" y="20" width="11" height="11" rx="2" fill="#0d1117"><title>2026-03-30: 0 contributions</title></rect><rect x="524" y="34" width="11" height="11" rx="2" fill="#0d1117"><title>2026-03-31: 0 contributions</title></rect><rect x="524" y="48" width="11" height="11" rx="2" fill="#0d1117"><title>2026-04-01: 0 contributions</title></rect><rect x="524" y="62" width="11" height="11" rx="2" fill="#0d1117"><title>2026-04-02: 0 contributions</title></rect><rect x="524" y="76" width="11" height="11" rx="2" fill="#0d1117"><title>2026-04-03: 0 contributions</title></rect><rect x="524" y="90" width="11" height="11" rx="2" fill="#0d1117"><title>2026-04-04: 0 contributions</title></rect><rect x="538" y="104" width="11" height="11" rx="2" fill="#0d1117"><title>2026-04-05: 0 contributions</title></rect><rect x="538" y="20" width="11" height="11" rx="2" fill="#0d1117"><title>2026-04-06: 0 contributions</title></rect><rect x="538" y="34" width="11" height="11" rx="2" fill="#0d1117"><title>2026-04-07: 0 contributions</title></rect><rect x="538" y="48" width="11" height="11" rx="2" fill="#0d1117"><title>2026-04-08: 0 contributions</title></rect><rect x="538" y="62" width="11" height="11" rx="2" fill="#0d1117"><title>2026-04-09: 0 contributions</title></rect><rect x="538" y="76" width="11" height="11" rx="2" fill="#0e4b52"><title>2026-04-10: 1 contributions</title></rect><rect x="538" y="90" width="11" height="11" rx="2" fill="#0d1117"><title>2026-04-11: 0 contributions</title></rect><rect x="552" y="104" width="11" height="11" rx="2" fill="#0d1117"><title>2026-04-12: 0 contributions</title></rect><rect x="552" y="20" width="11" height="11" rx="2" fill="#0e4b52"><title>2026-04-13: 1 contributions</title></rect><rect x="552" y="34" width="11" height="11" rx="2" fill="#0d1117"><title>2026-04-14: 0 contributions</title></rect><rect x="552" y="48" width="11" height="11" rx="2" fill="#0e4b52"><title>2026-04-15: 1 contributions</title></rect><rect x="552" y="62" width="11" height="11" rx="2" fill="#0d1117"><title>2026-04-16: 0 contributions</title></rect><rect x="552" y="76" width="11" height="11" rx="2" fill="#0d1117"><title>2026-04-17: 0 contributions</title></rect><rect x="552" y="90" width="11" height="11" rx="2" fill="#0d1117"><title>2026-04-18: 0 contributions</title></rect><rect x="566" y="104" width="11" height="11" rx="2" fill="#0d1117"><title>2026-04-19: 0 contributions</title></rect><rect x="566" y="20" width="11" height="11" rx="2" fill="#0d1117"><title>2026-04-20: 0 contributions</title></rect><rect x="566" y="34" width="11" height="11" rx="2" fill="#0d1117"><title>2026-04-21: 0 contributions</title></rect><rect x="566" y="48" width="11" height="11" rx="2" fill="#0d1117"><title>2026-04-22: 0 contributions</title></rect><rect x="566" y="62" width="11" height="11" rx="2" fill="#0d1117"><title>2026-04-23: 0 contributions</title></rect><rect x="566" y="76" width="11" height="11" rx="2" fill="#0d1117"><title>2026-04-24: 0 contributions</title></rect><rect x="566" y="90" width="11" height="11" rx="2" fill="#0d1117"><title>2026-04-25: 0 contributions</title></rect><rect x="580" y="104" width="11" height="11" rx="2" fill="#0d1117"><title>2026-04-26: 0 contributions</title></rect><rect x="580" y="20" width="11" height="11" rx="2" fill="#0d1117"><title>2026-04-27: 0 contributions</title></rect><rect x="580" y="34" width="11" height="11" rx="2" fill="#0d1117"><title>2026-04-28: 0 contributions</title></rect><rect x="580" y="48" width="11" height="11" rx="2" fill="#0d1117"><title>2026-04-29: 0 contributions</title></rect><rect x="580" y="62" width="11" height="11" rx="2" fill="#0e4b52"><title>2026-04-30: 2 contributions</title></rect><rect x="580" y="76" width="11" height="11" rx="2" fill="#0e4b52"><title>2026-05-01: 4 contributions</title></rect><rect x="580" y="90" width="11" height="11" rx="2" fill="#0d1117"><title>2026-05-02: 0 contributions</title></rect><rect x="594" y="104" width="11" height="11" rx="2" fill="#0e4b52"><title>2026-05-03: 4 contributions</title></rect><rect x="594" y="20" width="11" height="11" rx="2" fill="#0d1117"><title>2026-05-04: 0 contributions</title></rect><rect x="594" y="34" width="11" height="11" rx="2" fill="#0d1117"><title>2026-05-05: 0 contributions</title></rect><rect x="594" y="48" width="11" height="11" rx="2" fill="#0d1117"><title>2026-05-06: 0 contributions</title></rect><rect x="594" y="62" width="11" height="11" rx="2" fill="#0d1117"><title>2026-05-07: 0 contributions</title></rect><rect x="594" y="76" width="11" height="11" rx="2" fill="#0d1117"><title>2026-05-08: 0 contributions</title></rect><rect x="594" y="90" width="11" height="11" rx="2" fill="#0d1117"><title>2026-05-09: 0 contributions</title></rect><rect x="608" y="104" width="11" height="11" rx="2" fill="#0e4b52"><title>2026-05-10: 1 contributions</title></rect><rect x="608" y="20" width="11" height="11" rx="2" fill="#0e4b52"><title>2026-05-11: 2 contributions</title></rect><rect x="608" y="34" width="11" height="11" rx="2" fill="#0e4b52"><title>2026-05-12: 4 contributions</title></rect><rect x="608" y="48" width="11" height="11" rx="2" fill="#0e4b52"><title>2026-05-13: 1 contributions</title></rect><rect x="608" y="62" width="11" height="11" rx="2" fill="#0d1117"><title>2026-05-14: 0 contributions</title></rect><rect x="608" y="76" width="11" height="11" rx="2" fill="#0d1117"><title>2026-05-15: 0 contributions</title></rect><rect x="608" y="90" width="11" height="11" rx="2" fill="#0d1117"><title>2026-05-16: 0 contributions</title></rect><rect x="622" y="104" width="11" height="11" rx="2" fill="#0e4b52"><title>2026-05-17: 1 contributions</title></rect><rect x="622" y="20" width="11" height="11" rx="2" fill="#0e4b52"><title>2026-05-18: 3 contributions</title></rect><rect x="622" y="34" width="11" height="11" rx="2" fill="#0e4b52"><title>2026-05-19: 2 contributions</title></rect><rect x="622" y="48" width="11" height="11" rx="2" fill="#0d1117"><title>2026-05-20: 0 contributions</title></rect><rect x="622" y="62" width="11" height="11" rx="2" fill="#0d1117"><title>2026-05-21: 0 contributions</title></rect><rect x="622" y="76" width="11" height="11" rx="2" fill="#0d1117"><title>2026-05-22: 0 contributions</title></rect><rect x="622" y="90" width="11" height="11" rx="2" fill="#0d1117"><title>2026-05-23: 0 contributions</title></rect><rect x="636" y="104" width="11" height="11" rx="2" fill="#0e4b52"><title>2026-05-24: 3 contributions</title></rect><rect x="636" y="20" width="11" height="11" rx="2" fill="#0e4b52"><title>2026-05-25: 3 contributions</title></rect><rect x="636" y="34" width="11" height="11" rx="2" fill="#0e4b52"><title>2026-05-26: 1 contributions</title></rect><rect x="636" y="48" width="11" height="11" rx="2" fill="#0e4b52"><title>2026-05-27: 3 contributions</title></rect><rect x="636" y="62" width="11" height="11" rx="2" fill="#0e4b52"><title>2026-05-28: 1 contributions</title></rect><rect x="636" y="76" width="11" height="11" rx="2" fill="#0e4b52"><title>2026-05-29: 3 contributions</title></rect><rect x="636" y="90" width="11" height="11" rx="2" fill="#0e4b52"><title>2026-05-30: 1 contributions</title></rect><rect x="650" y="104" width="11" height="11" rx="2" fill="#0e4b52"><title>2026-05-31: 1 contributions</title></rect><rect x="650" y="20" width="11" height="11" rx="2" fill="#0e4b52"><title>2026-06-01: 10 contributions</title></rect><rect x="650" y="34" width="11" height="11" rx="2" fill="#0e4b52"><title>2026-06-02: 10 contributions</title></rect><rect x="650" y="48" width="11" height="11" rx="2" fill="#0e4b52"><title>2026-06-03: 8 contributions</title></rect><rect x="650" y="62" width="11" height="11" rx="2" fill="#0e4b52"><title>2026-06-04: 2 contributions</title></rect><rect x="650" y="76" width="11" height="11" rx="2" fill="#0e4b52"><title>2026-06-05: 4 contributions</title></rect><rect x="650" y="90" width="11" height="11" rx="2" fill="#0e4b52"><title>2026-06-06: 2 contributions</title></rect><rect x="664" y="104" width="11" height="11" rx="2" fill="#0d1117"><title>2026-06-07: 0 contributions</title></rect><rect x="664" y="20" width="11" height="11" rx="2" fill="#0e4b52"><title>2026-06-08: 3 contributions</title></rect><rect x="664" y="34" width="11" height="11" rx="2" fill="#0e4b52"><title>2026-06-09: 1 contributions</title></rect><rect x="664" y="48" width="11" height="11" rx="2" fill="#0e4b52"><title>2026-06-10: 1 contributions</title></rect><rect x="664" y="62" width="11" height="11" rx="2" fill="#0d1117"><title>2026-06-11: 0 contributions</title></rect><rect x="664" y="76" width="11" height="11" rx="2" fill="#0e4b52"><title>2026-06-12: 9 contributions</title></rect><rect x="664" y="90" width="11" height="11" rx="2" fill="#0d1117"><title>2026-06-13: 0 contributions</title></rect><rect x="678" y="104" width="11" height="11" rx="2" fill="#0e4b52"><title>2026-06-14: 2 contributions</title></rect><rect x="678" y="20" width="11" height="11" rx="2" fill="#0e4b52"><title>2026-06-15: 3 contributions</title></rect><rect x="678" y="34" width="11" height="11" rx="2" fill="#0e4b52"><title>2026-06-16: 3 contributions</title></rect><rect x="678" y="48" width="11" height="11" rx="2" fill="#0e4b52"><title>2026-06-17: 3 contributions</title></rect><rect x="678" y="62" width="11" height="11" rx="2" fill="#0e4b52"><title>2026-06-18: 3 contributions</title></rect><rect x="678" y="76" width="11" height="11" rx="2" fill="#0e4b52"><title>2026-06-19: 6 contributions</title></rect><rect x="678" y="90" width="11" height="11" rx="2" fill="#0e4b52"><title>2026-06-20: 3 contributions</title></rect><rect x="692" y="104" width="11" height="11" rx="2" fill="#0d1117"><title>2026-06-21: 0 contributions</title></rect><rect x="692" y="20" width="11" height="11" rx="2" fill="#0d1117"><title>2026-06-22: 0 contributions</title></rect><rect x="692" y="34" width="11" height="11" rx="2" fill="#0d1117"><title>2026-06-23: 0 contributions</title></rect><rect x="692" y="48" width="11" height="11" rx="2" fill="#0d1117"><title>2026-06-24: 0 contributions</title></rect><rect x="692" y="62" width="11" height="11" rx="2" fill="#0d1117"><title>2026-06-25: 0 contributions</title></rect><rect x="692" y="76" width="11" height="11" rx="2" fill="#0d1117"><title>2026-06-26: 0 contributions</title></rect><rect x="692" y="90" width="11" height="11" rx="2" fill="#0e4b52"><title>2026-06-27: 1 contributions</title></rect><rect x="706" y="104" width="11" height="11" rx="2" fill="#0e4b52"><title>2026-06-28: 1 contributions</title></rect><rect x="706" y="20" width="11" height="11" rx="2" fill="#0e4b52"><title>2026-06-29: 9 contributions</title></rect><rect x="706" y="34" width="11" height="11" rx="2" fill="#0e4b52"><title>2026-06-30: 3 contributions</title></rect><rect x="706" y="48" width="11" height="11" rx="2" fill="#0e4b52"><title>2026-07-01: 11 contributions</title></rect><rect x="706" y="62" width="11" height="11" rx="2" fill="#0e4b52"><title>2026-07-02: 9 contributions</title></rect><rect x="706" y="76" width="11" height="11" rx="2" fill="#0e4b52"><title>2026-07-03: 12 contributions</title></rect><rect x="706" y="90" width="11" height="11" rx="2" fill="#0e4b52"><title>2026-07-04: 10 contributions</title></rect><rect x="720" y="104" width="11" height="11" rx="2" fill="#0e4b52"><title>2026-07-05: 4 contributions</title></rect><rect x="720" y="20" width="11" height="11" rx="2" fill="#0e4b52"><title>2026-07-06: 12 contributions</title></rect><rect x="720" y="34" width="11" height="11" rx="2" fill="#0e4b52"><title>2026-07-07: 4 contributions</title></rect><rect x="720" y="48" width="11" height="11" rx="2" fill="#0e4b52"><title>2026-07-08: 5 contributions</title></rect><rect x="720" y="62" width="11" height="11" rx="2" fill="#0e4b52"><title>2026-07-09: 23 contributions</title></rect><rect x="720" y="76" width="11" height="11" rx="2" fill="#0e4b52"><title>2026-07-10: 14 contributions</title></rect><rect x="720" y="90" width="11" height="11" rx="2" fill="#0e4b52"><title>2026-07-11: 13 contributions</title></rect><rect x="734" y="104" width="11" height="11" rx="2" fill="#0e4b52"><title>2026-07-12: 21 contributions</title></rect><rect x="734" y="20" width="11" height="11" rx="2" fill="#0e4b52"><title>2026-07-13: 20 contributions</title></rect><rect x="734" y="34" width="11" height="11" rx="2" fill="#0e4b52"><title>2026-07-14: 21 contributions</title></rect><rect x="734" y="48" width="11" height="11" rx="2" fill="#0f7a87"><title>2026-07-15: 40 contributions</title></rect><rect x="734" y="62" width="11" height="11" rx="2" fill="#0e4b52"><title>2026-07-16: 20 contributions</title></rect><rect x="734" y="76" width="11" height="11" rx="2" fill="#0e4b52"><title>2026-07-17: 17 contributions</title></rect><rect x="734" y="90" width="11" height="11" rx="2" fill="#0e4b52"><title>2026-07-18: 31 contributions</title></rect><rect x="748" y="104" width="11" height="11" rx="2" fill="#14b8c4"><title>2026-07-19: 99 contributions</title></rect><rect x="748" y="20" width="11" height="11" rx="2" fill="#22D3EE"><title>2026-07-20: 156 contributions</title></rect><rect x="748" y="34" width="11" height="11" rx="2" fill="#0f7a87"><title>2026-07-21: 60 contributions</title></rect><rect x="748" y="48" width="11" height="11" rx="2" fill="#0f7a87"><title>2026-07-22: 56 contributions</title></rect><rect x="748" y="62" width="11" height="11" rx="2" fill="#0e4b52"><title>2026-07-23: 21 contributions</title></rect><rect x="748" y="76" width="11" height="11" rx="2" fill="#0d1117"><title>2026-07-24: 0 contributions</title></rect>
</svg>
