<svg xmlns="http://www.w3.org/2000/svg" width="620" height="604" viewBox="0 0 620 604">
  <defs>
    <style>
      text { font-family: 'SF Mono', 'Fira Code', 'Courier New', monospace; }
    </style>
  </defs>
  <rect x="0.75" y="0.75" width="618.5" height="602.5" rx="10"
        fill="#0b0f17" stroke="#2dd4bf" stroke-opacity="0.35" stroke-width="1.5"/>
  <path d="M 0.75 10 A 9.25 9.25 0 0 1 10 0.75 L 610 0.75 A 9.25 9.25 0 0 1 619.25 10 L 619.25 34 L 0.75 34 Z"
        fill="#12161f"/>
  <line x1="0.75" y1="34" x2="619.25" y2="34" stroke="#1f2733" stroke-width="1"/>
  <circle cx="18" cy="17.0" r="6" fill="#ff5f56"/>
  <circle cx="38" cy="17.0" r="6" fill="#ffbd2e"/>
  <circle cx="58" cy="17.0" r="6" fill="#27c93f"/>
  <text x="310.0" y="21.0" font-size="12" fill="#8b949e" text-anchor="middle">ark@github: ~$ neofetch</text>
  <g transform="translate(0,34)">
    <text x="20" y="34" font-size="17" xml:space="preserve"><tspan fill="#3fb950">ark</tspan><tspan fill="#c9d1d9">@github</tspan></text><text x="20" y="68" font-size="13" font-weight="bold" fill="#e3b341">Now</text><text x="170" y="68" font-size="13" fill="#c9d1d9">Full-Stack Developer &amp; AI/ML Engineer</text><text x="20" y="92" font-size="13" font-weight="bold" fill="#e3b341">Building</text><text x="170" y="92" font-size="13" fill="#c9d1d9">RAG pipelines, LangChain &amp; LangGraph workflows, LLM-powered apps</text><text x="20" y="116" font-size="13" font-weight="bold" fill="#e3b341">Also</text><text x="170" y="116" font-size="13" fill="#c9d1d9">Project Admin @ ECWoC&#x27;26 · Contributor @ GSSOC&#x27;25</text><text x="20" y="140" font-size="13" font-weight="bold" fill="#e3b341">Now</text><text x="170" y="140" font-size="13" fill="#c9d1d9">Project Admin @ ECSoC&#x27;26</text><line x1="20" y1="158.0" x2="600" y2="158.0" stroke="#1f2733" stroke-width="1"/><text x="20" y="180" font-size="13" xml:space="preserve"><tspan fill="#6ee7f9">- Stack</tspan></text><text x="20" y="208" font-size="13" font-weight="bold" fill="#e3b341">Frontend</text><text x="170" y="208" font-size="13" fill="#c9d1d9">React, Next.js, TypeScript, Tailwind</text><text x="20" y="232" font-size="13" font-weight="bold" fill="#e3b341">Backend</text><text x="170" y="232" font-size="13" fill="#c9d1d9">Node.js, FastAPI, Django</text><text x="20" y="256" font-size="13" font-weight="bold" fill="#e3b341">AI / ML</text><text x="170" y="256" font-size="13" fill="#c9d1d9">LangChain, LangGraph, RAG Pipelines, PyTorch</text><text x="20" y="280" font-size="13" font-weight="bold" fill="#e3b341">Cloud</text><text x="170" y="280" font-size="13" fill="#c9d1d9">Docker, PostgreSQL, Supabase, Git</text><line x1="20" y1="298.0" x2="600" y2="298.0" stroke="#1f2733" stroke-width="1"/><text x="20" y="320" font-size="13" font-weight="bold" fill="#e3b341">Repos</text><text x="170" y="320" font-size="13" fill="#c9d1d9">43</text><text x="20" y="344" font-size="13" font-weight="bold" fill="#e3b341">Stars</text><text x="170" y="344" font-size="13" fill="#c9d1d9">50</text><text x="20" y="368" font-size="13" font-weight="bold" fill="#e3b341">Followers</text><text x="170" y="368" font-size="13" fill="#c9d1d9">22</text><text x="20" y="392" font-size="13" font-weight="bold" fill="#e3b341">Top lang</text><text x="170" y="392" font-size="13" fill="#c9d1d9">TypeScript</text><text x="20" y="416" font-size="13" font-weight="bold" fill="#e3b341">Issues raised</text><text x="170" y="416" font-size="13" fill="#c9d1d9">45</text><text x="20" y="440" font-size="13" font-weight="bold" fill="#e3b341">PRs merged</text><text x="170" y="440" font-size="13" fill="#c9d1d9">10</text><line x1="20" y1="458.0" x2="600" y2="458.0" stroke="#1f2733" stroke-width="1"/><text x="20" y="480" font-size="13" xml:space="preserve"><tspan fill="#6ee7f9">- Highlights</tspan></text><circle cx="24" cy="503" r="3.5" fill="#3fb950"/><text x="38" y="508" font-size="13" fill="#c9d1d9">Top 6 Project Admin at Elite Coders Winter of Code (ECWoC&#x27;26)</text><circle cx="24" cy="527" r="3.5" fill="#3fb950"/><text x="38" y="532" font-size="13" fill="#c9d1d9">Mentored 50+ contributors and reviewed 200+ PRs across open source</text>
  </g>
</svg>
